HIERARCHY
ROOT Hips
{
	OFFSET 0.000000 0.000000 0.000000
	CHANNELS 6 Xposition Yposition Zposition Xrotation Yrotation Zrotation
	JOINT LeftUpLeg_virtual
	{
		OFFSET 0.000000 0.000000 0.000000
		CHANNELS 3 Xrotation Yrotation Zrotation
		JOINT LeftUpLeg
		{
			OFFSET 15.427100 -6.655098 0.678600
			CHANNELS 3 Xrotation Yrotation Zrotation
			JOINT LeftLeg
			{
				OFFSET 4.081073 -39.591068 13.024000
				CHANNELS 3 Xrotation Yrotation Zrotation
				JOINT LeftFoot
				{
					OFFSET -4.081074 -37.707932 -15.979700
					CHANNELS 3 Xrotation Yrotation Zrotation
					JOINT LeftToeBase
					{
						OFFSET 5.346399 -15.068900 20.645000
						CHANNELS 3 Xrotation Yrotation Zrotation
						JOINT LeftToe_End
						{
							OFFSET 2.754700 0.931300 11.300900
							CHANNELS 3 Xrotation Yrotation Zrotation
							End Site
							{
								OFFSET 0 0 0
							}
						}
					}
				}
			}
		}
	}
	JOINT RightUpLeg_virtual
	{
		OFFSET 0.000000 0.000000 0.000000
		CHANNELS 3 Xrotation Yrotation Zrotation
		JOINT RightUpLeg
		{
			OFFSET -15.569500 -6.655098 0.678600
			CHANNELS 3 Xrotation Yrotation Zrotation
			JOINT RightLeg
			{
				OFFSET -4.081825 -39.591045 13.023800
				CHANNELS 3 Xrotation Yrotation Zrotation
				JOINT RightFoot
				{
					OFFSET 4.081824 -37.707954 -15.979600
					CHANNELS 3 Xrotation Yrotation Zrotation
					JOINT RightToeBase
					{
						OFFSET -5.346400 -15.068900 20.645000
						CHANNELS 3 Xrotation Yrotation Zrotation
						JOINT RightToe_End
						{
							OFFSET -2.754700 0.931300 11.300900
							CHANNELS 3 Xrotation Yrotation Zrotation
							End Site
							{
								OFFSET 0 0 0
							}
						}
					}
				}
			}
		}
	}
	JOINT Spine_virtual
	{
		OFFSET 0.000000 0.000000 0.000000
		CHANNELS 3 Xrotation Yrotation Zrotation
		JOINT Spine
		{
			OFFSET -0.279200 12.230698 -2.892100
			CHANNELS 3 Xrotation Yrotation Zrotation
			JOINT Spine1
			{
				OFFSET -0.232667 10.192268 -1.242267
				CHANNELS 3 Xrotation Yrotation Zrotation
				JOINT Spine1_split
				{
					OFFSET -0.232667 10.192268 -1.242267
					CHANNELS 3 Xrotation Yrotation Zrotation
					JOINT Spine2
					{
						OFFSET -0.232667 10.192268 -1.242267
						CHANNELS 3 Xrotation Yrotation Zrotation
						JOINT Neck_virtual
						{
							OFFSET 0.000000 0.000000 0.000000
							CHANNELS 3 Xrotation Yrotation Zrotation
							JOINT Neck
							{
								OFFSET -0.418800 17.814194 8.416900
								CHANNELS 3 Xrotation Yrotation Zrotation
								JOINT Head
								{
									OFFSET 0.000000 7.031097 3.806800
									CHANNELS 3 Xrotation Yrotation Zrotation
									JOINT HeadTop_End
									{
										OFFSET 0.000000 24.646606 12.978600
										CHANNELS 3 Xrotation Yrotation Zrotation
										End Site
										{
											OFFSET 0 0 0
										}
									}
								}
							}
						}
						JOINT LeftShoulder_virtual
						{
							OFFSET 0.000000 0.000000 0.000000
							CHANNELS 3 Xrotation Yrotation Zrotation
							JOINT LeftShoulder
							{
								OFFSET 8.476499 7.247704 -3.868750
								CHANNELS 3 Xrotation Yrotation Zrotation
								JOINT LeftShoulder_split
								{
									OFFSET 8.476499 7.247704 -3.868750
									CHANNELS 3 Xrotation Yrotation Zrotation
									JOINT LeftArm
									{
										OFFSET 9.308998 -2.777710 0.208600
										CHANNELS 3 Xrotation Yrotation Zrotation
										JOINT LeftForeArm
										{
											OFFSET 29.972298 0.000000 0.000000
											CHANNELS 3 Xrotation Yrotation Zrotation
											JOINT LeftHand
											{
												OFFSET 26.026505 0.000000 0.000000
												CHANNELS 3 Xrotation Yrotation Zrotation
												End Site
												{
													OFFSET 0 0 0
												}
											}
										}
									}
								}
							}
						}
						JOINT RightShoulder_virtual
						{
							OFFSET 0.000000 0.000000 0.000000
							CHANNELS 3 Xrotation Yrotation Zrotation
							JOINT RightShoulder
							{
								OFFSET -7.570500 7.247704 -3.868750
								CHANNELS 3 Xrotation Yrotation Zrotation
								JOINT RightShoulder_split
								{
									OFFSET -7.570500 7.247704 -3.868750
									CHANNELS 3 Xrotation Yrotation Zrotation
									JOINT RightArm
									{
										OFFSET -9.308998 -2.777710 0.208500
										CHANNELS 3 Xrotation Yrotation Zrotation
										JOINT RightForeArm
										{
											OFFSET -29.972300 0.000000 0.000000
											CHANNELS 3 Xrotation Yrotation Zrotation
											JOINT RightHand
											{
												OFFSET -26.026505 0.000000 0.000000
												CHANNELS 3 Xrotation Yrotation Zrotation
												End Site
												{
													OFFSET 0 0 0
												}
											}
										}
									}
								}
							}
						}
					}
				}
			}
		}
	}
}
MOTION
Frames: 9
Frame Time: 0.03333333
-0.162815 125.511810 332.931030 0.000000 0.000000 0.000000 19.473050 -39.196120 30.084302 -78.442974 -19.724135 17.770243 83.163680 9.584472 4.410176 -13.009365 1.070528 3.245861 3.658820 -0.975470 -6.898913 0.000000 0.000000 0.000000 15.234419 -36.497129 25.747580 -84.695411 -15.464552 -7.050552 72.413174 25.185605 22.197652 22.843334 17.496458 11.594366 -4.567992 2.869106 -1.066714 0.000000 0.000000 0.000000 14.824167 -30.087144 25.261648 33.838519 2.891620 -29.373358 13.644562 -0.127711 -3.226151 1.993043 -0.353721 0.458035 0.000000 0.000000 0.000000 18.509668 -1.279223 -0.156517 -2.258059 13.553155 -13.673241 -38.381838 -4.768526 0.565627 0.000000 0.000000 0.000000 17.333465 -0.699780 -0.916830 3.211097 -17.228836 -3.695519 1.323546 -2.153793 -0.473968 -87.278097 3.089147 -4.890190 10.536473 -56.707584 6.329103 0.000000 0.000000 0.000000 17.529472 -1.482616 -0.696056 5.972378 28.478737 -0.711200 -1.822189 3.709426 6.243343 -64.801584 -8.700595 40.622513 -82.394963 24.439240 59.396794 0.000000 0.000000 0.000000 
-0.461854 123.944420 343.537018 0.000000 0.000000 0.000000 19.494378 -35.428980 27.543078 -72.810725 -15.695915 22.171699 73.940411 10.257552 3.890265 -16.203186 3.156860 4.623217 1.647467 -1.094569 -6.285849 0.000000 0.000000 0.000000 17.234271 -35.426822 24.676066 -81.051697 -19.986361 -7.721899 53.852206 17.808405 26.305840 21.654445 14.623821 11.566493 -5.018896 3.255961 -0.805615 0.000000 0.000000 0.000000 16.523670 -28.523087 24.192996 34.142538 3.521222 -27.288489 13.078418 -0.492067 -3.216287 2.817693 0.287045 0.389673 0.000000 0.000000 0.000000 18.058160 -1.514299 -0.408208 -2.719145 14.061521 -15.833867 -41.251508 -5.308841 1.189592 0.000000 0.000000 0.000000 16.740901 -1.001352 -1.047697 3.430396 -15.416114 -3.825592 1.597856 -2.935971 -0.741216 -85.452913 -0.024129 -2.925520 0.762626 -57.168601 -1.906858 0.000000 0.000000 0.000000 16.936014 -1.850875 -0.872690 5.593676 27.041042 1.533365 -1.262378 2.319260 6.472689 -59.809918 -8.454051 42.620415 -83.861677 26.353856 63.107608 0.000000 0.000000 0.000000 
-0.969296 120.325607 353.606659 0.000000 0.000000 0.000000 17.701899 -30.544667 23.985712 -69.528232 -12.216080 25.761452 65.781463 9.832787 3.774985 -18.028868 3.811471 4.519309 -0.132201 -1.155032 -5.060829 0.000000 0.000000 0.000000 18.183260 -33.190355 23.203905 -73.409200 -20.210644 -8.891540 38.124958 10.927449 26.770112 20.718443 10.638085 11.250111 -3.622709 3.323886 0.105195 0.000000 0.000000 0.000000 16.918870 -27.198896 22.542008 33.403313 4.501183 -24.761280 12.177790 -0.867048 -2.835924 2.681756 0.652846 0.212026 0.000000 0.000000 0.000000 16.977248 -1.674333 -0.241209 -2.399186 13.996615 -17.630728 -43.036489 -4.766561 1.540790 0.000000 0.000000 0.000000 15.910195 -1.227140 -0.642023 3.517652 -12.369560 -3.545465 2.781129 -3.508948 -1.221669 -83.470328 -0.761653 -1.300806 -6.858668 -58.550151 -8.452684 0.000000 0.000000 0.000000 16.155527 -2.107924 -0.612574 5.339558 25.691775 3.998533 -1.671644 1.418112 6.221336 -51.829682 -6.977567 44.192895 -83.660965 28.277608 66.130704 0.000000 0.000000 0.000000 
-1.114194 115.254822 363.755371 0.000000 0.000000 0.000000 15.694853 -25.909235 20.722205 -67.922379 -10.333970 27.800070 58.613309 8.656899 4.132373 -18.669993 3.479243 2.759893 -0.806461 -1.179252 -3.943854 0.000000 0.000000 0.000000 17.781691 -29.773297 21.270983 -62.790960 -16.102721 -10.436384 27.709396 7.819058 24.825134 19.536769 7.262804 12.362659 -1.979159 3.075383 1.196559 0.000000 0.000000 0.000000 16.639768 -26.193603 20.779001 31.983734 5.445539 -22.035823 10.925967 -1.268525 -2.272798 1.636765 1.300204 0.258675 0.000000 0.000000 0.000000 15.407341 -1.821725 0.211986 -1.060732 13.473402 -18.799626 -43.338691 -3.093406 1.617054 0.000000 0.000000 0.000000 14.841159 -1.432696 0.082110 3.443960 -8.971652 -3.052993 4.648163 -3.399637 -1.570007 -82.009801 1.102170 0.292950 -13.648618 -61.035895 -14.556745 0.000000 0.000000 0.000000 15.189538 -2.314692 -0.055526 5.138366 24.492111 6.386781 -2.591990 0.854111 5.869682 -41.521444 -5.419269 44.793760 -82.865399 30.527254 69.072371 0.000000 0.000000 0.000000 
-0.986915 109.451294 374.544739 0.000000 0.000000 0.000000 14.383490 -23.083591 18.136649 -66.689605 -10.165966 28.185392 51.918959 7.842311 4.826011 -18.266533 2.593175 0.533907 -0.946492 -1.177999 -3.109860 0.000000 0.000000 0.000000 17.107232 -26.927338 19.276565 -50.313946 -9.099089 -11.083825 22.290177 7.797589 22.005377 15.986517 4.123208 13.846040 -1.184912 2.482004 1.956680 0.000000 0.000000 0.000000 16.104249 -25.854774 18.851727 30.172863 6.313592 -19.075347 9.424662 -1.638804 -1.754166 0.698687 0.960800 0.303592 0.000000 0.000000 0.000000 13.429444 -2.064207 0.657694 1.539071 12.765899 -19.168379 -41.907271 -0.257530 1.547441 0.000000 0.000000 0.000000 13.516702 -1.668640 0.792210 3.123991 -6.073437 -2.408911 6.006113 -2.533052 -2.481100 -81.363857 5.030260 1.650977 -20.956053 -64.174217 -21.506966 0.000000 0.000000 0.000000 13.920677 -2.506906 0.520655 4.854788 23.267584 8.762259 -3.677576 0.444457 5.847520 -29.805726 -5.542751 44.633121 -83.047983 33.583760 73.168565 0.000000 0.000000 0.000000 
-0.683275 103.524094 386.397919 0.000000 0.000000 0.000000 13.557247 -22.482124 15.690391 -64.274143 -10.175814 27.996578 45.077852 8.517663 5.433386 -17.769980 1.887266 -0.322386 -0.589083 -1.216740 -2.690045 0.000000 0.000000 0.000000 15.739582 -25.833521 17.063460 -37.642180 -1.272889 -10.240880 21.541643 9.578458 18.809149 7.547539 0.938586 13.410842 -0.913143 1.687865 2.227269 0.000000 0.000000 0.000000 15.489793 -26.327690 16.624240 28.482862 7.128056 -15.875955 7.596296 -1.876653 -1.487276 0.378147 0.430253 0.124192 0.000000 0.000000 0.000000 11.196306 -2.302965 0.771927 5.197366 11.872857 -18.741506 -38.900366 3.060576 1.127552 0.000000 0.000000 0.000000 11.865765 -1.904614 1.166327 2.614247 -4.437203 -2.084177 6.676198 -1.527790 -3.415128 -80.503772 9.716443 2.600546 -30.285998 -68.078271 -30.761123 0.000000 0.000000 0.000000 12.240501 -2.660007 0.890132 4.515971 21.834411 10.853180 -4.362923 0.036032 5.940741 -17.747946 -8.606205 44.492662 -85.576301 37.451252 79.397903 0.000000 0.000000 0.000000 
0.047707 98.039421 399.133911 0.000000 0.000000 0.000000 12.984992 -24.325005 13.206330 -60.313193 -8.882805 27.977421 38.491357 10.795293 5.713649 -16.741801 1.781137 0.564365 -0.178633 -1.390347 -2.458731 0.000000 0.000000 0.000000 13.495735 -26.913986 14.277782 -25.996286 5.425702 -8.665721 24.646686 11.059670 15.442747 -4.520564 -1.742709 9.422197 -1.863309 0.881606 2.273168 0.000000 0.000000 0.000000 14.339135 -27.688801 14.184602 27.211878 7.906037 -12.580816 5.568975 -1.815981 -1.439896 0.962832 -0.062246 0.254352 0.000000 0.000000 0.000000 8.785935 -2.450200 0.572955 9.083738 10.853597 -17.532928 -34.737311 6.231510 0.319340 0.000000 0.000000 0.000000 9.841499 -2.059360 1.184329 1.976051 -4.431515 -2.293064 6.110346 -0.832510 -3.850492 -78.085414 14.211560 2.567493 -42.780296 -72.377329 -43.622373 0.000000 0.000000 0.000000 9.996642 -2.726146 0.972909 4.142751 20.004740 12.457062 -4.348925 0.040036 5.665244 -6.611478 -14.458245 45.206085 -90.231368 41.243203 87.034608 0.000000 0.000000 0.000000 
0.536443 93.713814 412.027161 0.000000 0.000000 0.000000 11.850493 -27.238328 10.398042 -55.584879 -5.708616 28.342229 33.308428 13.846010 5.362431 -14.026973 1.812126 1.959432 -0.732550 -1.604685 -1.895802 0.000000 0.000000 0.000000 10.610869 -29.985818 11.259573 -16.521997 10.105641 -7.040962 29.575542 11.013169 12.087276 -15.390916 -2.729944 3.251121 -4.790188 0.103655 2.322439 0.000000 0.000000 0.000000 12.662202 -29.318095 11.349024 26.573225 8.638326 -9.505152 3.379461 -1.410154 -1.344717 1.796382 -0.894815 0.577775 0.000000 0.000000 0.000000 6.233253 -2.353947 0.279500 12.372613 9.782756 -15.975999 -30.196283 8.668278 -0.713852 0.000000 0.000000 0.000000 7.420278 -2.032318 1.074644 1.259691 -5.855831 -3.002842 4.940021 -0.381835 -3.784546 -73.574893 17.595238 0.937147 -59.202304 -76.504532 -60.955661 0.000000 0.000000 0.000000 7.135546 -2.597347 0.981670 3.825961 17.755644 13.688737 -3.786492 0.883399 4.681829 2.987870 -21.789550 47.462926 -94.232923 44.528401 93.140845 0.000000 0.000000 0.000000 
0.697585 90.534447 425.068298 0.000000 0.000000 0.000000 9.643310 -29.392807 7.326427 -51.616696 -0.820575 28.648795 30.777451 16.990664 3.809319 -9.198868 1.785756 2.857581 -1.637238 -1.817859 -1.110960 0.000000 0.000000 0.000000 7.384008 -33.463730 8.035659 -9.172457 12.806396 -6.688220 34.531620 10.047642 9.166601 -19.462880 -1.900631 -0.409576 -10.646936 -0.602502 2.535968 0.000000 0.000000 0.000000 10.114231 -30.341415 8.190350 26.755470 9.042421 -7.402008 1.079110 -0.811856 -0.965610 2.257744 -1.307694 1.345645 0.000000 0.000000 0.000000 3.775779 -1.956544 0.292400 13.779413 8.704580 -14.592322 -26.166240 9.689329 -1.717178 0.000000 0.000000 0.000000 4.689625 -1.778122 1.230026 0.554350 -8.293217 -4.168113 4.430105 0.103957 -3.069938 -67.445482 19.193991 -2.574071 -81.648594 -80.128282 -84.798998 0.000000 0.000000 0.000000 3.842184 -2.327181 1.252208 3.512733 15.160701 14.569828 -3.164632 2.387096 3.214570 11.363655 -28.512968 50.950500 -95.370731 47.686472 95.555446 0.000000 0.000000 0.000000 
